HIERARCHY
ROOT SpineBase
{
  OFFSET 0.000000 0.000000 0.000000
  CHANNELS 6 Xposition Yposition Zposition Zrotation Xrotation Yrotation
  JOINT SpineMid
  {
    OFFSET 0.000000 28.927653 0.000000
    CHANNELS 3 Zrotation Xrotation Yrotation
    JOINT SpineShoulder
    {
      OFFSET -0.034058 21.531218 -0.744981
      CHANNELS 3 Zrotation Xrotation Yrotation
      JOINT Neck
      {
        OFFSET -0.023143 7.139424 -0.546227
        CHANNELS 3 Zrotation Xrotation Yrotation
        JOINT Head
        {
          OFFSET -1.936779 12.537749 -1.029811
          CHANNELS 3 Zrotation Xrotation Yrotation
          End Site
          {
            OFFSET 0 0 0
          }
        }
      }
      JOINT ShoulderLeft
      {
        OFFSET -16.534870 -2.193619 5.151809
        CHANNELS 3 Zrotation Xrotation Yrotation
        JOINT ElbowLeft
        {
          OFFSET -4.355506 -26.023458 3.951199
          CHANNELS 3 Zrotation Xrotation Yrotation
          JOINT WristLeft
          {
            OFFSET -4.366382 -19.892670 -3.338965
            CHANNELS 3 Zrotation Xrotation Yrotation
            JOINT HandLeft
            {
              OFFSET -0.662475 -6.702097 -2.406483
              CHANNELS 3 Zrotation Xrotation Yrotation
              JOINT HandTipLeft
              {
                OFFSET -0.797465 -6.800042 -1.826029
                CHANNELS 3 Zrotation Xrotation Yrotation
                End Site
                {
                  OFFSET 0 0 0
                }
              }
              JOINT ThumbLeft
              {
                OFFSET -2.291979 -0.572548 -1.984975
                CHANNELS 3 Zrotation Xrotation Yrotation
                End Site
                {
                  OFFSET 0 0 0
                }
              }
            }
          }
        }
      }
      JOINT ShoulderRight
      {
        OFFSET 15.546444 -1.937287 -5.264913
        CHANNELS 3 Zrotation Xrotation Yrotation
        JOINT ElbowRight
        {
          OFFSET 6.744750 -25.464530 -2.487803
          CHANNELS 3 Zrotation Xrotation Yrotation
          JOINT WristRight
          {
            OFFSET 3.256047 -20.241810 -5.942648
            CHANNELS 3 Zrotation Xrotation Yrotation
            JOINT HandRight
            {
              OFFSET 0.121363 -8.229961 -2.943344
              CHANNELS 3 Zrotation Xrotation Yrotation
              JOINT HandTipRight
              {
                OFFSET 0.545938 -6.270841 -1.388831
                CHANNELS 3 Zrotation Xrotation Yrotation
                End Site
                {
                  OFFSET 0 0 0
                }
              }
              JOINT ThumbRight
              {
                OFFSET 1.870098 -1.439343 -3.250907
                CHANNELS 3 Zrotation Xrotation Yrotation
                End Site
                {
                  OFFSET 0 0 0
                }
              }
            }
          }
        }
      }
    }
  }
  JOINT HipLeft
  {
    OFFSET -7.151105 0.412885 -1.654297
    CHANNELS 3 Zrotation Xrotation Yrotation
    JOINT KneeLeft
    {
      OFFSET -5.974671 -31.591075 3.911886
      CHANNELS 3 Zrotation Xrotation Yrotation
      JOINT AnkleLeft
      {
        OFFSET 0.560392 -33.766599 8.618864
        CHANNELS 3 Zrotation Xrotation Yrotation
        JOINT FootLeft
        {
          OFFSET -2.981058 -3.275309 -13.193310
          CHANNELS 3 Zrotation Xrotation Yrotation
          End Site
          {
            OFFSET 0 0 0
          }
        }
      }
    }
  }
  JOINT HipRight
  {
    OFFSET 6.775258 1.023398 -4.811892
    CHANNELS 3 Zrotation Xrotation Yrotation
    JOINT KneeRight
    {
      OFFSET 3.102958 -27.139402 3.323933
      CHANNELS 3 Zrotation Xrotation Yrotation
      JOINT AnkleRight
      {
        OFFSET 2.763247 -40.202131 9.752853
        CHANNELS 3 Zrotation Xrotation Yrotation
        JOINT FootRight
        {
          OFFSET -3.038590 -3.659221 -12.442814
          CHANNELS 3 Zrotation Xrotation Yrotation
          End Site
          {
            OFFSET 0 0 0
          }
        }
      }
    }
  }
}
MOTION
Frames: 12
Frame Time: 0.033333
22.808388 75.049942 363.426753 -0.000000 0.000000 12.774972 -0.000000 0.000000 -12.774972 -0.000000 0.000000 0.000000 -0.000000 0.000000 0.000000 0.000000 0.000000 0.000000 -0.000000 0.000000 0.000000 -0.000000 0.000000 0.000000 -0.000000 0.000000 0.000000 -0.000000 0.000000 0.000000 0.000000 0.000000 0.000000 0.000000 0.000000 0.000000 -0.000000 0.000000 0.000000 -0.000000 0.000000 0.000000 -0.000000 0.000000 0.000000 -0.000000 0.000000 0.000000 0.000000 0.000000 0.000000 0.000000 0.000000 0.000000 -0.000000 0.000000 -12.774972 -0.000000 0.000000 0.000000 -0.000000 0.000000 0.000000 0.000000 0.000000 0.000000 -0.000000 0.000000 -12.774972 -0.000000 0.000000 0.000000 -0.000000 0.000000 0.000000 0.000000 0.000000 0.000000
22.802192 75.073654 363.387022 -0.031794 -0.013480 12.817696 0.033993 0.006090 -12.817701 -0.000000 0.000000 0.000000 -0.000000 0.000000 0.000000 0.000000 0.000000 0.000000 -0.000000 0.000000 0.000000 -0.000000 0.000000 0.000000 -0.000000 0.000000 0.000000 0.534855 -2.959865 0.219022 0.000000 0.000000 0.000000 0.000000 0.000000 0.000000 -0.000000 0.000000 0.000000 -0.000000 0.000000 0.000000 -0.291552 1.814148 0.134882 1.504518 0.605705 -0.170061 0.000000 0.000000 0.000000 0.000000 0.000000 0.000000 0.033993 0.006090 -12.817701 -0.000000 0.000000 0.000000 1.140149 -4.915041 -0.082683 0.000000 0.000000 0.000000 0.033993 0.006090 -12.817701 -0.000000 0.000000 0.000000 -0.000000 0.000000 0.000000 0.000000 0.000000 0.000000
22.798268 75.096359 363.352554 -0.066527 -0.021312 12.845827 0.069601 0.005987 -12.845843 -0.000000 0.000000 0.000000 -0.000000 0.000000 0.000000 0.000000 0.000000 0.000000 -0.000000 0.000000 0.000000 -0.000000 0.000000 0.000000 -0.000000 0.000000 0.000000 0.859015 -5.327592 0.440413 0.000000 0.000000 0.000000 0.000000 0.000000 0.000000 -0.000000 0.000000 0.000000 -0.000000 0.000000 0.000000 -0.516650 3.315941 0.246110 2.711325 1.152781 -0.269756 0.000000 0.000000 0.000000 0.000000 0.000000 0.000000 0.069601 0.005987 -12.845843 -0.000000 0.000000 0.000000 2.270589 -9.743833 -0.100101 0.000000 0.000000 0.000000 0.709233 -0.970577 -12.830116 -0.840597 0.810069 -0.004400 -0.000000 0.000000 0.000000 0.000000 0.000000 0.000000
22.796616 75.118058 363.323347 -0.104187 -0.023483 12.859456 0.106800 -0.000294 -12.859477 -0.000000 0.000000 0.000000 -0.000000 0.000000 0.000000 0.000000 0.000000 0.000000 -0.000000 0.000000 0.000000 -0.000000 0.000000 0.000000 -0.000000 0.000000 0.000000 0.966888 -7.108236 0.646504 0.000000 0.000000 0.000000 0.000000 0.000000 0.000000 -0.000000 0.000000 0.000000 -0.221424 0.833908 0.200394 -0.436718 3.664209 0.120895 3.612407 1.649470 -0.315811 0.000000 0.000000 0.000000 0.000000 0.000000 0.000000 0.106800 -0.000294 -12.859477 -0.000000 0.000000 0.000000 3.322901 -14.147604 -0.071521 0.000000 0.000000 0.000000 0.917624 -1.296332 -12.842032 -1.627154 0.403892 -0.170487 0.546289 0.680995 0.176286 0.000000 0.000000 0.000000
22.797235 75.138750 363.299402 -0.144757 -0.019987 12.858638 0.145575 -0.012729 -12.858647 -0.000000 0.000000 0.000000 -0.000000 0.000000 0.000000 0.000000 0.000000 0.000000 -0.000000 0.000000 0.000000 -0.000000 0.000000 0.000000 -0.000000 0.000000 0.000000 0.851007 -8.307475 0.826050 0.000000 0.000000 0.000000 0.000000 0.000000 0.000000 -0.000000 0.000000 0.000000 -0.198721 1.217426 0.255566 -0.534604 4.134826 0.109052 4.205728 2.105778 -0.321444 0.000000 0.000000 0.000000 0.000000 0.000000 0.000000 0.145575 -0.012729 -12.858647 -0.000000 0.000000 0.000000 4.216182 -17.784947 -0.037329 0.000000 0.000000 0.000000 1.046846 -1.540551 -12.844580 -1.839720 0.625742 -0.173836 0.618944 0.665162 0.192481 0.000000 0.000000 0.000000
22.800126 75.158436 363.280719 -0.188219 -0.010821 12.843393 0.185915 -0.031289 -12.843360 -0.000000 0.000000 0.000000 -0.000000 0.000000 0.000000 0.000000 0.000000 0.000000 -0.000000 0.000000 0.000000 -0.000000 0.000000 0.000000 -0.000000 0.000000 0.000000 0.501748 -8.925419 0.974155 0.000000 0.000000 0.000000 0.000000 0.000000 0.000000 -0.000000 0.000000 0.000000 -0.127855 1.655474 0.304460 -0.606347 4.218882 0.066082 4.492689 2.532402 -0.295637 0.000000 0.000000 0.000000 0.000000 0.000000 0.000000 0.185915 -0.031289 -12.843360 -0.000000 0.000000 0.000000 4.868987 -20.369610 -0.050395 0.000000 0.000000 0.000000 1.103168 -1.713567 -12.838302 -1.895713 0.927465 -0.149263 0.625728 0.510341 0.184221 0.000000 0.000000 0.000000
22.807458 75.161841 363.275470 -0.226706 -0.010382 12.755513 0.223403 -0.039929 -12.755456 -0.000000 0.000000 0.000000 -0.000000 0.000000 0.000000 0.000000 0.000000 0.000000 -0.000000 0.000000 0.000000 -0.000000 0.000000 0.000000 -0.000000 0.000000 0.000000 -0.432604 -10.948466 1.397884 0.000000 0.000000 0.000000 0.000000 0.000000 0.000000 -0.000000 0.000000 0.000000 -0.007949 2.123188 0.342192 -0.765160 4.163697 0.042416 4.809690 1.803170 -0.350969 0.000000 0.000000 0.000000 0.000000 0.000000 0.000000 0.223403 -0.039929 -12.755456 -0.046923 -0.931628 -0.027763 5.705488 -22.597631 -0.243017 0.000000 0.000000 0.000000 1.124789 -1.821361 -12.760859 -1.273022 1.538024 0.037134 -0.000000 0.000000 0.000000 0.000000 0.000000 0.000000
22.820011 75.176812 363.269041 -0.275841 0.014268 12.721611 0.265928 -0.074662 -12.721404 -0.000000 0.000000 0.000000 -0.000000 0.000000 0.000000 0.000000 0.000000 0.000000 -0.000000 0.000000 0.000000 -0.000000 0.000000 0.000000 -0.000000 0.000000 0.000000 -1.437346 -8.427199 1.293805 0.000000 0.000000 0.000000 0.000000 0.000000 0.000000 -0.000000 0.000000 0.000000 0.093367 2.722013 0.405427 -0.422290 3.079768 -0.201823 3.392069 3.199767 -0.011914 0.000000 0.000000 0.000000 0.000000 0.000000 0.000000 0.265928 -0.074662 -12.721404 -0.144449 -0.918335 -0.053162 5.547750 -21.536988 -0.425419 0.000000 0.000000 0.000000 0.911758 -2.164545 -12.791880 -1.093040 1.894783 0.101173 -0.000000 0.000000 0.000000 0.000000 0.000000 0.000000
22.830424 75.199532 363.262094 -0.336007 0.043270 12.675188 0.318325 -0.115942 -12.674739 -0.000000 0.000000 0.000000 0.714633 -0.592043 -0.029026 0.000000 0.000000 0.000000 -0.000000 0.000000 0.000000 -0.000000 0.000000 0.000000 1.235432 0.083495 -0.453132 -3.389621 -7.565296 1.797401 0.000000 0.000000 0.000000 0.000000 0.000000 0.000000 -0.000000 0.000000 0.000000 0.309586 3.417937 0.445737 -0.454386 2.031839 -0.330414 2.859826 3.097968 0.071191 0.000000 0.000000 0.000000 0.000000 0.000000 0.000000 0.318325 -0.115942 -12.674739 -0.223679 -0.807473 -0.071944 4.392720 -16.571022 -0.590280 0.000000 0.000000 0.000000 0.838433 -1.711538 -12.726241 -0.859065 1.441706 0.070606 -0.000000 0.000000 0.000000 0.000000 0.000000 0.000000
22.835128 75.227021 363.257645 -0.413825 0.075310 12.636678 0.387327 -0.164015 -12.635852 -0.000000 0.000000 0.000000 1.024649 -0.836594 -0.037517 0.000000 0.000000 0.000000 -0.847038 0.123630 -0.148229 0.847357 -0.121425 0.150041 1.559340 -0.147542 -0.544326 -4.760687 -0.333585 1.452246 0.000000 0.000000 0.000000 0.000000 0.000000 0.000000 -0.000000 0.000000 0.000000 0.585131 3.982778 0.443888 -0.717256 1.412443 -0.358437 3.071844 2.421130 -0.015548 0.000000 0.000000 0.000000 0.000000 0.000000 0.000000 0.387327 -0.164015 -12.635852 -0.000000 0.000000 0.000000 2.282444 -9.455446 -0.586991 0.000000 0.000000 0.000000 0.909398 -1.849206 -12.693955 -1.235360 2.708300 0.087480 0.353619 -1.179639 0.008320 0.000000 0.000000 0.000000
22.836864 75.250618 363.254220 -0.488611 0.107800 12.601030 0.453327 -0.211795 -12.599732 -0.747889 0.430310 -0.053034 1.990823 -1.500728 0.015975 0.000000 0.000000 0.000000 -0.194933 -0.323987 -0.108382 0.943415 -0.103853 0.161681 1.842314 0.157842 -0.680443 -5.333600 1.245225 1.463872 0.000000 0.000000 0.000000 0.000000 0.000000 0.000000 0.748309 -0.429581 0.058648 0.908429 4.516859 0.419028 -0.915857 0.225161 -0.417842 2.185187 -0.007905 -0.052188 0.000000 0.000000 0.000000 0.000000 0.000000 0.000000 0.453327 -0.211795 -12.599732 -0.231160 -0.800413 -0.073773 1.136426 -3.171606 0.075606 0.000000 0.000000 0.000000 0.964044 -1.741523 -12.646965 -1.282811 2.828131 0.073495 0.123164 0.788831 -0.694975 0.000000 0.000000 0.000000
22.835751 75.275302 363.252912 -0.563140 0.137225 12.591040 -0.173156 0.260753 -12.615919 -0.056054 0.108577 -0.035800 2.222944 -1.707931 0.013038 0.000000 0.000000 0.000000 -0.194438 -0.388998 -0.111131 1.040040 -0.070678 0.170630 1.868826 0.853668 -0.768566 -5.111835 2.628542 1.230395 0.000000 0.000000 0.000000 0.000000 0.000000 0.000000 0.845496 -0.461629 0.066577 1.237401 5.012797 0.383800 -1.277659 0.347817 -0.399221 1.087986 -1.619502 0.064294 0.000000 0.000000 0.000000 0.000000 0.000000 0.000000 0.519688 -0.256677 -12.589202 -0.000000 0.000000 0.000000 1.531657 -6.029267 -0.769247 0.000000 0.000000 0.000000 1.041846 -1.630751 -12.621761 -1.246956 2.552802 0.049737 0.435872 -1.326435 0.019552 0.000000 0.000000 0.000000
